<svg width="20" height="20" viewBox="0 0 20 20" fill="none" xmlns="http://www.w3.org/2000/svg">
<g clip-path="url(#clip0_100_27)">
<path d="M0.628957 0.650427C-0.10223 1.38161 -0.10223 2.56708 0.628957 3.29826L7.34139 10.0107L0.628957 16.7232C-0.10223 17.4543 -0.10223 18.6399 0.628957 19.371C1.36013 20.1021 2.54561 20.1021 3.27677 19.371L9.98919 12.6585L16.7017 19.371C17.4329 20.1021 18.6184 20.1021 19.3495 19.371C20.0807 18.6399 20.0807 17.4543 19.3495 16.7232L12.637 10.0107L19.3495 3.29828C20.0807 2.56711 20.0807 1.38163 19.3495 0.650465C18.6182 -0.0807225 17.4329 -0.0807225 16.7017 0.650465L9.98919 7.36286L3.27677 0.650427C2.54561 -0.0807413 1.36013 -0.0807413 0.628957 0.650427Z" fill="white"/>
</g>
<defs>
<clipPath id="clip0_100_27">
<rect width="20" height="20" fill="white"/>
</clipPath>
</defs>
</svg>
