<svg width="28" height="26" viewBox="0 0 28 26" fill="none" xmlns="http://www.w3.org/2000/svg">
<path d="M17.898 18.8505C12.7787 18.8505 8.61372 14.6841 8.61232 9.56485C8.61372 8.26716 9.67038 7.21191 10.9653 7.21191C11.0984 7.21191 11.2301 7.22312 11.3562 7.24555C11.6337 7.29179 11.8972 7.38569 12.1396 7.52723C12.1747 7.54825 12.1985 7.58188 12.2041 7.62112L12.745 11.0307C12.752 11.0714 12.7394 11.1106 12.7128 11.14C12.4143 11.4708 12.0331 11.709 11.6085 11.8281L11.4039 11.8856L11.481 12.0832C12.1789 13.8601 13.5999 15.2797 15.3783 15.9804L15.5759 16.0589L15.6333 15.8543C15.7524 15.4297 15.9907 15.0485 16.3214 14.75C16.3452 14.7276 16.3774 14.7164 16.4097 14.7164C16.4167 14.7164 16.4237 14.7164 16.4321 14.7178L19.8417 15.2587C19.8823 15.2657 19.916 15.2881 19.937 15.3232C20.0771 15.5656 20.171 15.8305 20.2187 16.108C20.2411 16.2313 20.2509 16.3616 20.2509 16.4976C20.2509 17.7938 19.1957 18.8491 17.898 18.8505Z" fill="white"/>
<path d="M26.9762 11.8773C26.7002 8.75782 25.2708 5.86394 22.9514 3.72961C20.6181 1.58268 17.5911 0.399902 14.4254 0.399902C7.47724 0.399902 1.82403 6.05313 1.82403 13.0012C1.82403 15.3332 2.46725 17.6048 3.68506 19.5836L0.969162 25.5956L9.66482 24.6692C11.1769 25.2887 12.7773 25.6026 14.4239 25.6026C14.857 25.6026 15.3012 25.5802 15.7469 25.5339C16.1393 25.4919 16.5359 25.4302 16.9255 25.3517C22.744 24.176 26.9917 19.0118 27.0253 13.0685V13.0012C27.0253 12.6229 27.0085 12.2445 26.9748 11.8773H26.9762ZM9.99975 22.0304L5.18878 22.5433L6.6252 19.3608L6.33791 18.9754C6.31689 18.9474 6.29587 18.9193 6.27205 18.8871C5.02481 17.1648 4.36614 15.13 4.36614 13.0026C4.36614 7.45592 8.87863 2.94343 14.4254 2.94343C19.6217 2.94343 24.0263 6.99767 24.4509 12.173C24.4734 12.4505 24.486 12.7294 24.486 13.004C24.486 13.0825 24.4846 13.1596 24.4832 13.2423C24.3767 17.8823 21.1352 21.823 16.6003 22.8264C16.2542 22.9035 15.8996 22.9623 15.5465 23.0002C15.1793 23.0422 14.8023 23.0632 14.4282 23.0632C13.0954 23.0632 11.8005 22.8054 10.5771 22.2953C10.4412 22.2406 10.3081 22.1818 10.1833 22.1215L10.0012 22.0332L9.99975 22.0304Z" fill="white"/>
</svg>
