<svg width="26" height="21" viewBox="0 0 26 21" fill="none" xmlns="http://www.w3.org/2000/svg">
<path d="M1.57581 9.31856C1.63187 9.29053 1.68795 9.2639 1.74261 9.23868C2.69275 8.79864 3.65551 8.38663 4.61687 7.97462C4.66872 7.97462 4.75559 7.91436 4.80463 7.89474C4.87891 7.86251 4.95319 7.83168 5.02747 7.79944L5.4549 7.61586C5.74079 7.49394 6.02525 7.37202 6.31113 7.2501C6.8815 7.00625 7.45186 6.76241 8.02223 6.51717C9.16297 6.02948 10.3051 5.5404 11.4459 5.05271C12.5866 4.56503 13.7287 4.07594 14.8695 3.58825C16.0102 3.10057 17.1523 2.61148 18.2931 2.1238C19.4338 1.63611 20.576 1.14702 21.7167 0.659339C21.9703 0.55003 22.245 0.387469 22.5169 0.339822C22.7453 0.299181 22.9681 0.220704 23.1979 0.17726C23.6338 0.0945781 24.1145 0.0609445 24.5321 0.241724C24.6764 0.304787 24.8096 0.393074 24.9203 0.503784C25.45 1.02791 25.3757 1.88836 25.2636 2.6255C24.483 7.76301 23.7024 12.9019 22.9205 18.0394C22.814 18.7443 22.6682 19.5179 22.1119 19.9635C21.641 20.3405 20.9711 20.3826 20.3895 20.2228C19.808 20.0616 19.2951 19.7239 18.792 19.3918C16.7053 18.01 14.6172 16.6282 12.5305 15.2465C12.0344 14.9185 11.4823 14.4897 11.4879 13.8941C11.4907 13.5354 11.7051 13.2158 11.9237 12.9314C13.7371 10.5658 16.3535 8.94018 18.3001 6.68393C18.5747 6.36582 18.7906 5.79125 18.4136 5.60766C18.1894 5.49835 17.9315 5.6469 17.7269 5.78844C15.1539 7.57522 12.5824 9.3634 10.0094 11.1502C9.17 11.7332 8.28992 12.333 7.27812 12.4759C6.37282 12.6048 5.46191 12.3526 4.58604 12.0947C3.85171 11.8789 3.11876 11.6575 2.38863 11.4291C2.00044 11.3085 1.59964 11.1782 1.29974 10.9049C0.999845 10.6317 0.827497 10.172 1.00828 9.80764C1.12179 9.57921 1.34181 9.43487 1.57304 9.31715L1.57581 9.31856Z" fill="white"/>
</svg>
